<svg xmlns="http://www.w3.org/2000/svg" viewBox="0 0 48 48" width="24" height="24">
  <path fill="#EA4335" d="M24 9.5c3.54 0 6.71 1.22 9.21 3.6l6.85-6.85C35.67 2.96 30.26.5 24 .5 14.81.5 6.93 5.84 3.15 13.54l7.98 6.2C13.12 13.58 18.1 9.5 24 9.5z"></path>
  <path fill="#34A853" d="M46.98 24.55c0-1.57-.14-3.08-.41-4.55H24v9.11h12.94c-.56 2.85-2.25 5.27-4.8 6.88l7.32 5.7c4.27-3.95 6.52-9.77 6.52-17.14z"></path>
  <path fill="#4A90E2" d="M9.13 28.33A14.48 14.48 0 0 1 8.25 24c0-1.5.26-2.94.72-4.33L.99 13.54A23.91 23.91 0 0 0 0 24c0 3.82.91 7.42 2.53 10.61l8.29-6.28z"></path>
  <path fill="#FBBC05" d="M24 48c6.26 0 11.52-2.07 15.36-5.63l-7.32-5.7c-2.04 1.37-4.63 2.18-8.04 2.18-6.13 0-11.31-4.13-13.16-9.75l-8.29 6.28C6.93 42.16 14.81 48 24 48z"></path>
</svg>
